@startuml


class StatisticsServiceImpl
class CombineAllPackage
class CombineAllRecord
class PackageAttributeDaoImpl{
    combineOneDataBase()
}
class DataRecordAttributeDaoImpl{
    combineOneDataBase()
    private statisticsTime()
    private statisticsSize()
}

interface PackageAttributeMapper
interface DataRecordAttributeMapper

StatisticsServiceImpl <|-- CombineAllPackage
StatisticsServiceImpl <|-- CombineAllRecord
CombineAllPackage <|-- PackageAttributeDaoImpl
CombineAllRecord <|-- DataRecordAttributeDaoImpl
PackageAttributeDaoImpl <|-- PackageAttributeMapper
DataRecordAttributeDaoImpl <|-- DataRecordAttributeMapper

@enduml